<svg width="514" height="455" viewBox="0 0 514 455" fill="none" xmlns="http://www.w3.org/2000/svg">
<rect x="79.5" y="104.5" width="355" height="270" rx="26.5" fill="#DCEFF9" stroke="#1C77E1" stroke-width="5"/>
<rect x="99.5" y="2.5" width="315" height="295" rx="41.5" fill="white" stroke="#2A85EF" stroke-width="5"/>
<g filter="url(#filter0_d_820_45)">
<path d="M261.181 229.875L390.668 134.29C408.822 120.889 434.5 133.85 434.5 156.415V347.585C434.5 370.15 408.822 383.111 390.668 369.71L261.181 274.125C246.291 263.133 246.291 240.867 261.181 229.875Z" fill="#E9F3FF" stroke="#2A85EF" stroke-width="5"/>
<path d="M252.819 274.125L123.332 369.71C105.178 383.111 79.5 370.15 79.5 347.585L79.5 156.415C79.5 133.85 105.178 120.889 123.332 134.29L252.819 229.875C267.709 240.867 267.709 263.133 252.819 274.125Z" fill="#E9F3FF" stroke="#2A85EF" stroke-width="5"/>
<path d="M276.152 189.071L424.732 333.266C442.456 350.467 430.279 380.5 405.58 380.5H108.42C83.7212 380.5 71.5437 350.467 89.268 333.266L237.848 189.071C248.517 178.717 265.483 178.717 276.152 189.071Z" fill="#E9F3FF" stroke="#2A85EF" stroke-width="5"/>
<g style="mix-blend-mode:hard-light">
<path d="M125.5 360C90.7001 354.8 79.5003 331.667 80.0003 321.5C75.0005 336.5 80.2904 356.255 88.0002 368C95.221 379 102 379 104.5 379C200.334 378.667 391.9 378.7 407.5 379.5C423.1 380.3 431.667 362.5 434 353.5C434.834 333.167 435.2 298.6 430 323C424.8 347.4 412.5 363.107 392 367.5C345.5 377.464 160.3 365.2 125.5 360Z" fill="#3E6B9F" fill-opacity="0.5"/>
</g>
</g>
<circle cx="328.5" cy="72.5" r="20.5" fill="#1C77E1"/>
<circle cx="184.5" cy="72.5" r="20.5" fill="#1C77E1"/>
<path d="M199.814 41.6282C201.076 40.3586 201.08 38.2876 199.663 37.1932C197.186 35.2795 194.376 33.8233 191.365 32.9036C187.318 31.6672 183.029 31.4376 178.873 32.2346C174.716 33.0316 170.817 34.8312 167.514 37.4772C165.057 39.4454 162.985 41.8378 161.391 44.5322C160.48 46.073 161.25 47.9954 162.892 48.7082V48.7082C164.535 49.4209 166.422 48.6476 167.397 47.1458C168.528 45.4024 169.934 43.8448 171.567 42.5368C174.047 40.5506 176.974 39.1997 180.094 38.6014C183.214 38.0031 186.433 38.1755 189.471 39.1036C191.472 39.7148 193.355 40.6417 195.051 41.843C196.512 42.8777 198.552 42.8979 199.814 41.6282V41.6282Z" fill="#2A85EF"/>
<path d="M230.428 133.549C228.216 133.784 226.588 135.779 227.097 137.944C228.598 144.333 232.019 150.147 236.945 154.577C242.875 159.911 250.567 162.863 258.543 162.865C266.518 162.868 274.213 159.921 280.146 154.591C285.075 150.164 288.499 144.352 290.004 137.964C290.514 135.799 288.888 133.804 286.676 133.567V133.567C284.464 133.33 282.511 134.947 281.911 137.089C280.677 141.5 278.21 145.5 274.762 148.597C270.308 152.598 264.532 154.81 258.545 154.809C252.559 154.807 246.784 152.591 242.333 148.587C238.886 145.488 236.422 141.486 235.19 137.074C234.592 134.931 232.64 133.313 230.428 133.549V133.549Z" fill="#2A85EF"/>
<path d="M345.747 44.0521C347.214 43.0258 347.585 40.9882 346.384 39.6605C344.284 37.3386 341.776 35.4082 338.975 33.9703C335.21 32.0373 331.03 31.0525 326.799 31.1015C322.567 31.1506 318.411 32.2319 314.692 34.2517C311.925 35.7542 309.462 37.7421 307.417 40.112C306.247 41.4673 306.665 43.4957 308.155 44.4877V44.4877C309.646 45.4798 311.64 45.0527 312.865 43.747C314.287 42.2312 315.947 40.9471 317.785 39.9486C320.577 38.4325 323.697 37.6208 326.874 37.5839C330.05 37.5471 333.188 38.2863 336.014 39.7374C337.875 40.693 339.565 41.9383 341.021 43.4207C342.276 44.6977 344.28 45.0784 345.747 44.0521V44.0521Z" fill="#1C77E1"/>
<defs>
<filter id="filter0_d_820_45" x="73" y="117.361" width="368" height="265.639" filterUnits="userSpaceOnUse" color-interpolation-filters="sRGB">
<feFlood flood-opacity="0" result="BackgroundImageFix"/>
<feColorMatrix in="SourceAlpha" type="matrix" values="0 0 0 0 0 0 0 0 0 0 0 0 0 0 0 0 0 0 127 0" result="hardAlpha"/>
<feOffset dy="-5"/>
<feGaussianBlur stdDeviation="2"/>
<feComposite in2="hardAlpha" operator="out"/>
<feColorMatrix type="matrix" values="0 0 0 0 0.363956 0 0 0 0 0.569495 0 0 0 0 0.718333 0 0 0 0.32 0"/>
<feBlend mode="normal" in2="BackgroundImageFix" result="effect1_dropShadow_820_45"/>
<feBlend mode="normal" in="SourceGraphic" in2="effect1_dropShadow_820_45" result="shape"/>
</filter>
</defs>
</svg>
