<svg width="514" height="473" viewBox="0 0 514 473" fill="none" xmlns="http://www.w3.org/2000/svg">
<rect x="79.5" y="122.5" width="355" height="270" rx="26.5" fill="#DCEFF9" stroke="#1C77E1" stroke-width="5"/>
<rect x="99.5" y="20.5" width="315" height="295" rx="41.5" fill="white" stroke="#2A85EF" stroke-width="5"/>
<g filter="url(#filter0_d_820_43)">
<path d="M261.181 247.875L390.668 152.29C408.822 138.889 434.5 151.85 434.5 174.415V365.585C434.5 388.15 408.822 401.111 390.668 387.71L261.181 292.125C246.291 281.133 246.291 258.867 261.181 247.875Z" fill="#E9F3FF" stroke="#2A85EF" stroke-width="5"/>
<path d="M252.819 292.125L123.332 387.71C105.178 401.111 79.5 388.15 79.5 365.585L79.5 174.415C79.5 151.85 105.178 138.889 123.332 152.29L252.819 247.875C267.709 258.867 267.709 281.133 252.819 292.125Z" fill="#E9F3FF" stroke="#2A85EF" stroke-width="5"/>
<path d="M276.152 207.071L424.732 351.266C442.456 368.467 430.279 398.5 405.58 398.5H108.42C83.7212 398.5 71.5437 368.467 89.268 351.266L237.848 207.071C248.517 196.717 265.483 196.717 276.152 207.071Z" fill="#E9F3FF" stroke="#2A85EF" stroke-width="5"/>
<g style="mix-blend-mode:hard-light">
<path d="M125.5 378C90.7001 372.8 79.5003 349.667 80.0003 339.5C75.0005 354.5 80.2904 374.255 88.0002 386C95.221 397 102 397 104.5 397C200.334 396.667 391.9 396.7 407.5 397.5C423.1 398.3 431.667 380.5 434 371.5C434.834 351.167 435.2 316.6 430 341C424.8 365.4 412.5 381.107 392 385.5C345.5 395.464 160.3 383.2 125.5 378Z" fill="#3E6B9F" fill-opacity="0.5"/>
</g>
</g>
<circle cx="328.5" cy="90.5" r="20.5" fill="#1C77E1"/>
<circle cx="184.5" cy="90.5" r="20.5" fill="#1C77E1"/>
<path d="M157.725 52.9106C156.463 54.1802 156.459 56.2512 157.875 57.3456C160.353 59.2593 163.163 60.7155 166.174 61.6352C170.221 62.8716 174.509 63.1012 178.666 62.3042C182.822 61.5072 186.721 59.7076 190.024 57.0616C192.482 55.0934 194.554 52.701 196.147 50.0066C197.059 48.4658 196.289 46.5434 194.646 45.8306V45.8306C193.004 45.1179 191.116 45.8912 190.142 47.393C189.011 49.1364 187.604 50.6939 185.971 52.002C183.492 53.9882 180.565 55.3391 177.445 55.9374C174.325 56.5357 171.106 56.3633 168.068 55.4352C166.067 54.824 164.184 53.8971 162.488 52.6958C161.027 51.6611 158.987 51.6409 157.725 52.9106V52.9106Z" fill="#2A85EF"/>
<path d="M290.678 169.557C292.89 169.322 294.518 167.327 294.009 165.162C292.508 158.773 289.087 152.959 284.161 148.529C278.231 143.195 270.539 140.243 262.563 140.241C254.588 140.238 246.893 143.185 240.96 148.515C236.031 152.943 232.607 158.754 231.102 165.142C230.592 167.307 232.218 169.302 234.43 169.539V169.539C236.642 169.776 238.595 168.159 239.195 166.017C240.429 161.606 242.896 157.606 246.344 154.509C250.798 150.508 256.574 148.296 262.561 148.297C268.548 148.299 274.322 150.515 278.773 154.519C282.22 157.618 284.684 161.62 285.916 166.032C286.514 168.175 288.466 169.793 290.678 169.557V169.557Z" fill="#2A85EF"/>
<path d="M309.873 46.2776C308.361 47.2355 307.897 49.2538 309.035 50.6353C311.026 53.0512 313.443 55.0947 316.175 56.6597C319.847 58.7636 323.977 59.9392 328.207 60.0846C332.437 60.2299 336.638 59.3405 340.446 57.4937C343.278 56.1198 345.83 54.247 347.982 51.9736C349.213 50.6735 348.888 48.628 347.445 47.5686V47.5686C346.002 46.5091 343.99 46.8442 342.706 48.0922C341.216 49.5411 339.499 50.7477 337.617 51.6607C334.758 53.047 331.605 53.7146 328.43 53.6055C325.255 53.4965 322.154 52.6139 319.398 51.0346C317.582 49.9946 315.952 48.673 314.565 47.1253C313.37 45.7921 311.386 45.3197 309.873 46.2776V46.2776Z" fill="#1C77E1"/>
<defs>
<filter id="filter0_d_820_43" x="73" y="135.361" width="368" height="265.639" filterUnits="userSpaceOnUse" color-interpolation-filters="sRGB">
<feFlood flood-opacity="0" result="BackgroundImageFix"/>
<feColorMatrix in="SourceAlpha" type="matrix" values="0 0 0 0 0 0 0 0 0 0 0 0 0 0 0 0 0 0 127 0" result="hardAlpha"/>
<feOffset dy="-5"/>
<feGaussianBlur stdDeviation="2"/>
<feComposite in2="hardAlpha" operator="out"/>
<feColorMatrix type="matrix" values="0 0 0 0 0.363956 0 0 0 0 0.569495 0 0 0 0 0.718333 0 0 0 0.32 0"/>
<feBlend mode="normal" in2="BackgroundImageFix" result="effect1_dropShadow_820_43"/>
<feBlend mode="normal" in="SourceGraphic" in2="effect1_dropShadow_820_43" result="shape"/>
</filter>
</defs>
</svg>
